# xmcd
#
# Track frame offsets: 
#        182
#        12820
#        23577
#        34177
#        48220
#        62820
#        79905
#        92037
#        109237
#        124395
#        137060
#        146585
#        158355
#        172190
#        185712
#        197765
#        211542
#        224762
#        237340
#
# Disc length: 3346 seconds
#
# Revision: 2
# Processed by: cddbd v1.5.2PL0 Copyright (c) Steve Scherf et al.
# Submitted via: ExactAudioCopy v0.99pb5
#
DISCID=0f0d1013
DTITLE=Dolly Parton - Country Classics - Disc 3
DYEAR=1993
DGENRE=Country
TTITLE0=9 To 5
TTITLE1=Love Is Like A Butterfly
TTITLE2=Bubbling Over
TTITLE3=Coat Of Many Colours
TTITLE4=Gypsy, Joe And Me
TTITLE5=Down From Dover
TTITLE6=Bobby's Arms
TTITLE7=My Blue Ridge Mountain Boy
TTITLE8=Sandy's Song
TTITLE9=In The Good Old Days (When Times Were Bad)
TTITLE10=He's A Go Getter
TTITLE11=Hold Me
TTITLE12=Most Of All Why
TTITLE13=Down On Music Row
TTITLE14=Kentucky Gambler
TTITLE15=My Tennessee Mountain Home
TTITLE16=I'm A Drifter
TTITLE17=Early Morning Breeze
TTITLE18=Two Doors Down
EXTD=
EXTT0=
EXTT1=
EXTT2=
EXTT3=
EXTT4=
EXTT5=
EXTT6=
EXTT7=
EXTT8=
EXTT9=
EXTT10=
EXTT11=
EXTT12=
EXTT13=
EXTT14=
EXTT15=
EXTT16=
EXTT17=
EXTT18=
PLAYORDER=
